<svg class="max-w-sm" viewBox="0 0 879 410" fill="none" xmlns="http://www.w3.org/2000/svg">
                    <g filter="url(#filter0_d_0_891)">
                    <rect x="473" width="406" height="288" rx="30" fill="#9D86D1" fill-opacity="0.15" shape-rendering="crispEdges"/>
                    </g>
                    <path d="M9.728 113.224C8.23467 113.224 6.89067 112.968 5.696 112.456C4.50133 111.923 3.56267 111.176 2.88 110.216C2.19733 109.256 1.856 108.136 1.856 106.856H5.76C5.84533 107.816 6.21867 108.605 6.88 109.224C7.56267 109.843 8.512 110.152 9.728 110.152C10.9867 110.152 11.968 109.853 12.672 109.256C13.376 108.637 13.728 107.848 13.728 106.888C13.728 106.141 13.504 105.533 13.056 105.064C12.6293 104.595 12.0853 104.232 11.424 103.976C10.784 103.72 9.888 103.443 8.736 103.144C7.28533 102.76 6.10133 102.376 5.184 101.992C4.288 101.587 3.52 100.968 2.88 100.136C2.24 99.304 1.92 98.1947 1.92 96.808C1.92 95.528 2.24 94.408 2.88 93.448C3.52 92.488 4.416 91.752 5.568 91.24C6.72 90.728 8.05333 90.472 9.568 90.472C11.7227 90.472 13.4827 91.016 14.848 92.104C16.2347 93.1707 17.0027 94.6427 17.152 96.52H13.12C13.056 95.7093 12.672 95.016 11.968 94.44C11.264 93.864 10.336 93.576 9.184 93.576C8.13867 93.576 7.28533 93.8427 6.624 94.376C5.96267 94.9093 5.632 95.6773 5.632 96.68C5.632 97.3627 5.83467 97.928 6.24 98.376C6.66667 98.8027 7.2 99.144 7.84 99.4C8.48 99.656 9.35467 99.9333 10.464 100.232C11.936 100.637 13.1307 101.043 14.048 101.448C14.9867 101.853 15.776 102.483 16.416 103.336C17.0773 104.168 17.408 105.288 17.408 106.696C17.408 107.827 17.0987 108.893 16.48 109.896C15.8827 110.899 14.9973 111.709 13.824 112.328C12.672 112.925 11.3067 113.224 9.728 113.224ZM20.4965 104.104C20.4965 102.333 20.8592 100.765 21.5845 99.4C22.3312 98.0347 23.3338 96.9787 24.5925 96.232C25.8725 95.464 27.2805 95.08 28.8165 95.08C30.2032 95.08 31.4085 95.3573 32.4325 95.912C33.4778 96.4453 34.3098 97.1173 34.9285 97.928V95.368H38.6085V113H34.9285V110.376C34.3098 111.208 33.4672 111.901 32.4005 112.456C31.3338 113.011 30.1178 113.288 28.7525 113.288C27.2378 113.288 25.8512 112.904 24.5925 112.136C23.3338 111.347 22.3312 110.259 21.5845 108.872C20.8592 107.464 20.4965 105.875 20.4965 104.104ZM34.9285 104.168C34.9285 102.952 34.6725 101.896 34.1605 101C33.6698 100.104 33.0192 99.4213 32.2085 98.952C31.3978 98.4827 30.5232 98.248 29.5845 98.248C28.6458 98.248 27.7712 98.4827 26.9605 98.952C26.1498 99.4 25.4885 100.072 24.9765 100.968C24.4858 101.843 24.2405 102.888 24.2405 104.104C24.2405 105.32 24.4858 106.387 24.9765 107.304C25.4885 108.221 26.1498 108.925 26.9605 109.416C27.7925 109.885 28.6672 110.12 29.5845 110.12C30.5232 110.12 31.3978 109.885 32.2085 109.416C33.0192 108.947 33.6698 108.264 34.1605 107.368C34.6725 106.451 34.9285 105.384 34.9285 104.168ZM50.216 109.736L55.208 95.368H59.08L52.36 113H48.008L41.32 95.368H45.224L50.216 109.736ZM77.9975 103.752C77.9975 104.413 77.9548 105.011 77.8695 105.544H64.3975C64.5042 106.952 65.0268 108.083 65.9655 108.936C66.9042 109.789 68.0562 110.216 69.4215 110.216C71.3842 110.216 72.7708 109.395 73.5815 107.752H77.5175C76.9842 109.373 76.0135 110.707 74.6055 111.752C73.2188 112.776 71.4908 113.288 69.4215 113.288C67.7362 113.288 66.2215 112.915 64.8775 112.168C63.5548 111.4 62.5095 110.333 61.7415 108.968C60.9948 107.581 60.6215 105.981 60.6215 104.168C60.6215 102.355 60.9842 100.765 61.7095 99.4C62.4562 98.0133 63.4908 96.9467 64.8135 96.2C66.1575 95.4533 67.6935 95.08 69.4215 95.08C71.0855 95.08 72.5682 95.4427 73.8695 96.168C75.1708 96.8933 76.1842 97.9173 76.9095 99.24C77.6348 100.541 77.9975 102.045 77.9975 103.752ZM74.1895 102.6C74.1682 101.256 73.6882 100.179 72.7495 99.368C71.8108 98.5573 70.6482 98.152 69.2615 98.152C68.0028 98.152 66.9255 98.5573 66.0295 99.368C65.1335 100.157 64.6002 101.235 64.4295 102.6H74.1895ZM94.156 98.344V108.104C94.156 108.765 94.3053 109.245 94.604 109.544C94.924 109.821 95.4573 109.96 96.204 109.96H98.444V113H95.564C93.9213 113 92.6627 112.616 91.788 111.848C90.9133 111.08 90.476 109.832 90.476 108.104V98.344H88.396V95.368H90.476V90.984H94.156V95.368H98.444V98.344H94.156ZM103.662 93.032C103.001 93.032 102.446 92.808 101.998 92.36C101.55 91.912 101.326 91.3573 101.326 90.696C101.326 90.0347 101.55 89.48 101.998 89.032C102.446 88.584 103.001 88.36 103.662 88.36C104.302 88.36 104.846 88.584 105.294 89.032C105.742 89.48 105.966 90.0347 105.966 90.696C105.966 91.3573 105.742 91.912 105.294 92.36C104.846 92.808 104.302 93.032 103.662 93.032ZM105.454 95.368V113H101.806V95.368H105.454ZM131.588 95.08C132.974 95.08 134.212 95.368 135.3 95.944C136.409 96.52 137.273 97.3733 137.892 98.504C138.532 99.6347 138.852 101 138.852 102.6V113H135.236V103.144C135.236 101.565 134.841 100.36 134.052 99.528C133.262 98.6747 132.185 98.248 130.82 98.248C129.454 98.248 128.366 98.6747 127.556 99.528C126.766 100.36 126.372 101.565 126.372 103.144V113H122.756V103.144C122.756 101.565 122.361 100.36 121.572 99.528C120.782 98.6747 119.705 98.248 118.34 98.248C116.974 98.248 115.886 98.6747 115.076 99.528C114.286 100.36 113.892 101.565 113.892 103.144V113H110.244V95.368H113.892V97.384C114.489 96.6587 115.246 96.0933 116.164 95.688C117.081 95.2827 118.062 95.08 119.108 95.08C120.516 95.08 121.774 95.3787 122.884 95.976C123.993 96.5733 124.846 97.4373 125.444 98.568C125.977 97.5013 126.809 96.6587 127.94 96.04C129.07 95.4 130.286 95.08 131.588 95.08ZM159.654 103.752C159.654 104.413 159.611 105.011 159.526 105.544H146.054C146.16 106.952 146.683 108.083 147.622 108.936C148.56 109.789 149.712 110.216 151.078 110.216C153.04 110.216 154.427 109.395 155.238 107.752H159.174C158.64 109.373 157.67 110.707 156.262 111.752C154.875 112.776 153.147 113.288 151.078 113.288C149.392 113.288 147.878 112.915 146.534 112.168C145.211 111.4 144.166 110.333 143.398 108.968C142.651 107.581 142.278 105.981 142.278 104.168C142.278 102.355 142.64 100.765 143.366 99.4C144.112 98.0133 145.147 96.9467 146.47 96.2C147.814 95.4533 149.35 95.08 151.078 95.08C152.742 95.08 154.224 95.4427 155.526 96.168C156.827 96.8933 157.84 97.9173 158.566 99.24C159.291 100.541 159.654 102.045 159.654 103.752ZM155.846 102.6C155.824 101.256 155.344 100.179 154.406 99.368C153.467 98.5573 152.304 98.152 150.918 98.152C149.659 98.152 148.582 98.5573 147.686 99.368C146.79 100.157 146.256 101.235 146.086 102.6H155.846ZM195.236 95.368L189.764 113H185.924L182.372 99.976L178.82 113H174.98L169.476 95.368H173.188L176.868 109.544L180.612 95.368H184.42L188.004 109.48L191.652 95.368H195.236ZM199.819 93.032C199.157 93.032 198.603 92.808 198.155 92.36C197.707 91.912 197.483 91.3573 197.483 90.696C197.483 90.0347 197.707 89.48 198.155 89.032C198.603 88.584 199.157 88.36 199.819 88.36C200.459 88.36 201.003 88.584 201.451 89.032C201.899 89.48 202.123 90.0347 202.123 90.696C202.123 91.3573 201.899 91.912 201.451 92.36C201.003 92.808 200.459 93.032 199.819 93.032ZM201.611 95.368V113H197.963V95.368H201.611ZM210.656 98.344V108.104C210.656 108.765 210.805 109.245 211.104 109.544C211.424 109.821 211.957 109.96 212.704 109.96H214.944V113H212.064C210.421 113 209.163 112.616 208.288 111.848C207.413 111.08 206.976 109.832 206.976 108.104V98.344H204.896V95.368H206.976V90.984H210.656V95.368H214.944V98.344H210.656ZM227.426 95.08C228.77 95.08 229.965 95.368 231.01 95.944C232.077 96.52 232.909 97.3733 233.506 98.504C234.125 99.6347 234.434 101 234.434 102.6V113H230.818V103.144C230.818 101.565 230.424 100.36 229.634 99.528C228.845 98.6747 227.768 98.248 226.402 98.248C225.037 98.248 223.949 98.6747 223.138 99.528C222.349 100.36 221.954 101.565 221.954 103.144V113H218.306V89.32H221.954V97.416C222.573 96.6693 223.352 96.0933 224.29 95.688C225.25 95.2827 226.296 95.08 227.426 95.08ZM1.184 149.168C1.184 147.355 1.54667 145.765 2.272 144.4C3.01867 143.013 4.04267 141.947 5.344 141.2C6.64533 140.453 8.13867 140.08 9.824 140.08C11.9573 140.08 13.7173 140.592 15.104 141.616C16.512 142.619 17.4613 144.059 17.952 145.936H14.016C13.696 145.061 13.184 144.379 12.48 143.888C11.776 143.397 10.8907 143.152 9.824 143.152C8.33067 143.152 7.136 143.685 6.24 144.752C5.36533 145.797 4.928 147.269 4.928 149.168C4.928 151.067 5.36533 152.549 6.24 153.616C7.136 154.683 8.33067 155.216 9.824 155.216C11.936 155.216 13.3333 154.288 14.016 152.432H17.952C17.44 154.224 16.48 155.653 15.072 156.72C13.664 157.765 11.9147 158.288 9.824 158.288C8.13867 158.288 6.64533 157.915 5.344 157.168C4.04267 156.4 3.01867 155.333 2.272 153.968C1.54667 152.581 1.184 150.981 1.184 149.168ZM29.2355 158.288C27.5715 158.288 26.0675 157.915 24.7235 157.168C23.3795 156.4 22.3235 155.333 21.5555 153.968C20.7875 152.581 20.4035 150.981 20.4035 149.168C20.4035 147.376 20.7982 145.787 21.5875 144.4C22.3768 143.013 23.4542 141.947 24.8195 141.2C26.1848 140.453 27.7102 140.08 29.3955 140.08C31.0808 140.08 32.6062 140.453 33.9715 141.2C35.3368 141.947 36.4142 143.013 37.2035 144.4C37.9928 145.787 38.3875 147.376 38.3875 149.168C38.3875 150.96 37.9822 152.549 37.1715 153.936C36.3608 155.323 35.2515 156.4 33.8435 157.168C32.4568 157.915 30.9208 158.288 29.2355 158.288ZM29.2355 155.12C30.1742 155.12 31.0488 154.896 31.8595 154.448C32.6915 154 33.3635 153.328 33.8755 152.432C34.3875 151.536 34.6435 150.448 34.6435 149.168C34.6435 147.888 34.3982 146.811 33.9075 145.936C33.4168 145.04 32.7662 144.368 31.9555 143.92C31.1448 143.472 30.2702 143.248 29.3315 143.248C28.3928 143.248 27.5182 143.472 26.7075 143.92C25.9182 144.368 25.2888 145.04 24.8195 145.936C24.3502 146.811 24.1155 147.888 24.1155 149.168C24.1155 151.067 24.5955 152.539 25.5555 153.584C26.5368 154.608 27.7635 155.12 29.2355 155.12ZM45.6418 134.32V158H41.9938V134.32H45.6418ZM54.0793 134.32V158H50.4313V134.32H54.0793ZM57.6528 149.104C57.6528 147.333 58.0154 145.765 58.7408 144.4C59.4874 143.035 60.4901 141.979 61.7488 141.232C63.0288 140.464 64.4368 140.08 65.9728 140.08C67.3594 140.08 68.5648 140.357 69.5888 140.912C70.6341 141.445 71.4661 142.117 72.0848 142.928V140.368H75.7648V158H72.0848V155.376C71.4661 156.208 70.6234 156.901 69.5568 157.456C68.4901 158.011 67.2741 158.288 65.9088 158.288C64.3941 158.288 63.0074 157.904 61.7488 157.136C60.4901 156.347 59.4874 155.259 58.7408 153.872C58.0154 152.464 57.6528 150.875 57.6528 149.104ZM72.0848 149.168C72.0848 147.952 71.8288 146.896 71.3168 146C70.8261 145.104 70.1754 144.421 69.3648 143.952C68.5541 143.483 67.6794 143.248 66.7408 143.248C65.8021 143.248 64.9274 143.483 64.1168 143.952C63.3061 144.4 62.6448 145.072 62.1328 145.968C61.6421 146.843 61.3968 147.888 61.3968 149.104C61.3968 150.32 61.6421 151.387 62.1328 152.304C62.6448 153.221 63.3061 153.925 64.1168 154.416C64.9488 154.885 65.8234 155.12 66.7408 155.12C67.6794 155.12 68.5541 154.885 69.3648 154.416C70.1754 153.947 70.8261 153.264 71.3168 152.368C71.8288 151.451 72.0848 150.384 72.0848 149.168ZM84.2043 142.992C84.8229 142.139 85.6656 141.445 86.7323 140.912C87.8203 140.357 89.0256 140.08 90.3483 140.08C91.9056 140.08 93.3136 140.453 94.5723 141.2C95.8309 141.947 96.8229 143.013 97.5483 144.4C98.2736 145.765 98.6363 147.333 98.6363 149.104C98.6363 150.875 98.2736 152.464 97.5483 153.872C96.8229 155.259 95.8203 156.347 94.5403 157.136C93.2816 157.904 91.8843 158.288 90.3483 158.288C88.9829 158.288 87.7669 158.021 86.7003 157.488C85.6549 156.955 84.8229 156.272 84.2043 155.44V158H80.5563V134.32H84.2043V142.992ZM94.9243 149.104C94.9243 147.888 94.6683 146.843 94.1562 145.968C93.6656 145.072 93.0043 144.4 92.1723 143.952C91.3616 143.483 90.4869 143.248 89.5483 143.248C88.6309 143.248 87.7563 143.483 86.9243 143.952C86.1136 144.421 85.4523 145.104 84.9403 146C84.4496 146.896 84.2043 147.952 84.2043 149.168C84.2043 150.384 84.4496 151.451 84.9403 152.368C85.4523 153.264 86.1136 153.947 86.9243 154.416C87.7563 154.885 88.6309 155.12 89.5483 155.12C90.4869 155.12 91.3616 154.885 92.1723 154.416C93.0043 153.925 93.6656 153.221 94.1562 152.304C94.6683 151.387 94.9243 150.32 94.9243 149.104ZM109.892 158.288C108.228 158.288 106.724 157.915 105.38 157.168C104.036 156.4 102.98 155.333 102.212 153.968C101.444 152.581 101.06 150.981 101.06 149.168C101.06 147.376 101.454 145.787 102.244 144.4C103.033 143.013 104.11 141.947 105.476 141.2C106.841 140.453 108.366 140.08 110.052 140.08C111.737 140.08 113.262 140.453 114.628 141.2C115.993 141.947 117.07 143.013 117.86 144.4C118.649 145.787 119.044 147.376 119.044 149.168C119.044 150.96 118.638 152.549 117.828 153.936C117.017 155.323 115.908 156.4 114.5 157.168C113.113 157.915 111.577 158.288 109.892 158.288ZM109.892 155.12C110.83 155.12 111.705 154.896 112.516 154.448C113.348 154 114.02 153.328 114.532 152.432C115.044 151.536 115.3 150.448 115.3 149.168C115.3 147.888 115.054 146.811 114.564 145.936C114.073 145.04 113.422 144.368 112.612 143.92C111.801 143.472 110.926 143.248 109.988 143.248C109.049 143.248 108.174 143.472 107.364 143.92C106.574 144.368 105.945 145.04 105.476 145.936C105.006 146.811 104.772 147.888 104.772 149.168C104.772 151.067 105.252 152.539 106.212 153.584C107.193 154.608 108.42 155.12 109.892 155.12ZM126.298 142.928C126.831 142.032 127.535 141.339 128.41 140.848C129.306 140.336 130.362 140.08 131.578 140.08V143.856H130.65C129.221 143.856 128.133 144.219 127.386 144.944C126.661 145.669 126.298 146.928 126.298 148.72V158H122.65V140.368H126.298V142.928ZM133.715 149.104C133.715 147.333 134.078 145.765 134.803 144.4C135.55 143.035 136.553 141.979 137.811 141.232C139.091 140.464 140.499 140.08 142.035 140.08C143.422 140.08 144.627 140.357 145.651 140.912C146.697 141.445 147.529 142.117 148.147 142.928V140.368H151.827V158H148.147V155.376C147.529 156.208 146.686 156.901 145.619 157.456C144.553 158.011 143.337 158.288 141.971 158.288C140.457 158.288 139.07 157.904 137.811 157.136C136.553 156.347 135.55 155.259 134.803 153.872C134.078 152.464 133.715 150.875 133.715 149.104ZM148.147 149.168C148.147 147.952 147.891 146.896 147.379 146C146.889 145.104 146.238 144.421 145.427 143.952C144.617 143.483 143.742 143.248 142.803 143.248C141.865 143.248 140.99 143.483 140.179 143.952C139.369 144.4 138.707 145.072 138.195 145.968C137.705 146.843 137.459 147.888 137.459 149.104C137.459 150.32 137.705 151.387 138.195 152.304C138.707 153.221 139.369 153.925 140.179 154.416C141.011 154.885 141.886 155.12 142.803 155.12C143.742 155.12 144.617 154.885 145.427 154.416C146.238 153.947 146.889 153.264 147.379 152.368C147.891 151.451 148.147 150.384 148.147 149.168ZM160.875 143.344V153.104C160.875 153.765 161.024 154.245 161.323 154.544C161.643 154.821 162.176 154.96 162.923 154.96H165.163V158H162.283C160.64 158 159.381 157.616 158.507 156.848C157.632 156.08 157.195 154.832 157.195 153.104V143.344H155.115V140.368H157.195V135.984H160.875V140.368H165.163V143.344H160.875ZM170.381 138.032C169.72 138.032 169.165 137.808 168.717 137.36C168.269 136.912 168.045 136.357 168.045 135.696C168.045 135.035 168.269 134.48 168.717 134.032C169.165 133.584 169.72 133.36 170.381 133.36C171.021 133.36 171.565 133.584 172.013 134.032C172.461 134.48 172.685 135.035 172.685 135.696C172.685 136.357 172.461 136.912 172.013 137.36C171.565 137.808 171.021 138.032 170.381 138.032ZM172.173 140.368V158H168.525V140.368H172.173ZM183.779 154.736L188.771 140.368H192.642L185.923 158H181.571L174.883 140.368H178.786L183.779 154.736ZM211.56 148.752C211.56 149.413 211.517 150.011 211.432 150.544H197.96C198.067 151.952 198.589 153.083 199.528 153.936C200.467 154.789 201.619 155.216 202.984 155.216C204.947 155.216 206.333 154.395 207.144 152.752H211.08C210.547 154.373 209.576 155.707 208.168 156.752C206.781 157.776 205.053 158.288 202.984 158.288C201.299 158.288 199.784 157.915 198.44 157.168C197.117 156.4 196.072 155.333 195.304 153.968C194.557 152.581 194.184 150.981 194.184 149.168C194.184 147.355 194.547 145.765 195.272 144.4C196.019 143.013 197.053 141.947 198.376 141.2C199.72 140.453 201.256 140.08 202.984 140.08C204.648 140.08 206.131 140.443 207.432 141.168C208.733 141.893 209.747 142.917 210.472 144.24C211.197 145.541 211.56 147.045 211.56 148.752ZM207.752 147.6C207.731 146.256 207.251 145.179 206.312 144.368C205.373 143.557 204.211 143.152 202.824 143.152C201.565 143.152 200.488 143.557 199.592 144.368C198.696 145.157 198.163 146.235 197.992 147.6H207.752ZM227.719 143.344V153.104C227.719 153.765 227.868 154.245 228.167 154.544C228.487 154.821 229.02 154.96 229.767 154.96H232.007V158H229.127C227.484 158 226.225 157.616 225.351 156.848C224.476 156.08 224.039 154.832 224.039 153.104V143.344H221.959V140.368H224.039V135.984H227.719V140.368H232.007V143.344H227.719ZM243.017 158.288C241.353 158.288 239.849 157.915 238.505 157.168C237.161 156.4 236.105 155.333 235.337 153.968C234.569 152.581 234.185 150.981 234.185 149.168C234.185 147.376 234.579 145.787 235.369 144.4C236.158 143.013 237.235 141.947 238.601 141.2C239.966 140.453 241.491 140.08 243.177 140.08C244.862 140.08 246.387 140.453 247.753 141.2C249.118 141.947 250.195 143.013 250.985 144.4C251.774 145.787 252.169 147.376 252.169 149.168C252.169 150.96 251.763 152.549 250.953 153.936C250.142 155.323 249.033 156.4 247.625 157.168C246.238 157.915 244.702 158.288 243.017 158.288ZM243.017 155.12C243.955 155.12 244.83 154.896 245.641 154.448C246.473 154 247.145 153.328 247.657 152.432C248.169 151.536 248.425 150.448 248.425 149.168C248.425 147.888 248.179 146.811 247.689 145.936C247.198 145.04 246.547 144.368 245.737 143.92C244.926 143.472 244.051 143.248 243.113 143.248C242.174 143.248 241.299 143.472 240.489 143.92C239.699 144.368 239.07 145.04 238.601 145.936C238.131 146.811 237.897 147.888 237.897 149.168C237.897 151.067 238.377 152.539 239.337 153.584C240.318 154.608 241.545 155.12 243.017 155.12ZM263.423 158.288C261.759 158.288 260.255 157.915 258.911 157.168C257.567 156.4 256.511 155.333 255.743 153.968C254.975 152.581 254.591 150.981 254.591 149.168C254.591 147.376 254.986 145.787 255.775 144.4C256.564 143.013 257.642 141.947 259.007 141.2C260.372 140.453 261.898 140.08 263.583 140.08C265.268 140.08 266.794 140.453 268.159 141.2C269.524 141.947 270.602 143.013 271.391 144.4C272.18 145.787 272.575 147.376 272.575 149.168C272.575 150.96 272.17 152.549 271.359 153.936C270.548 155.323 269.439 156.4 268.031 157.168C266.644 157.915 265.108 158.288 263.423 158.288ZM263.423 155.12C264.362 155.12 265.236 154.896 266.047 154.448C266.879 154 267.551 153.328 268.063 152.432C268.575 151.536 268.831 150.448 268.831 149.168C268.831 147.888 268.586 146.811 268.095 145.936C267.604 145.04 266.954 144.368 266.143 143.92C265.332 143.472 264.458 143.248 263.519 143.248C262.58 143.248 261.706 143.472 260.895 143.92C260.106 144.368 259.476 145.04 259.007 145.936C258.538 146.811 258.303 147.888 258.303 149.168C258.303 151.067 258.783 152.539 259.743 153.584C260.724 154.608 261.951 155.12 263.423 155.12ZM279.829 134.32V158H276.181V134.32H279.829ZM291.019 158.288C289.632 158.288 288.384 158.043 287.275 157.552C286.187 157.04 285.323 156.357 284.683 155.504C284.043 154.629 283.701 153.659 283.659 152.592H287.435C287.499 153.339 287.851 153.968 288.491 154.48C289.152 154.971 289.973 155.216 290.955 155.216C291.979 155.216 292.768 155.024 293.323 154.64C293.899 154.235 294.187 153.723 294.187 153.104C294.187 152.443 293.867 151.952 293.227 151.632C292.608 151.312 291.616 150.96 290.251 150.576C288.928 150.213 287.851 149.861 287.019 149.52C286.187 149.179 285.461 148.656 284.843 147.952C284.245 147.248 283.947 146.32 283.947 145.168C283.947 144.229 284.224 143.376 284.779 142.608C285.333 141.819 286.123 141.2 287.147 140.752C288.192 140.304 289.387 140.08 290.731 140.08C292.736 140.08 294.347 140.592 295.563 141.616C296.8 142.619 297.461 143.995 297.547 145.744H293.899C293.835 144.955 293.515 144.325 292.939 143.856C292.363 143.387 291.584 143.152 290.603 143.152C289.643 143.152 288.907 143.333 288.395 143.696C287.883 144.059 287.627 144.539 287.627 145.136C287.627 145.605 287.797 146 288.139 146.32C288.48 146.64 288.896 146.896 289.387 147.088C289.877 147.259 290.603 147.483 291.563 147.76C292.843 148.101 293.888 148.453 294.699 148.816C295.531 149.157 296.245 149.669 296.843 150.352C297.44 151.035 297.749 151.941 297.771 153.072C297.771 154.075 297.493 154.971 296.939 155.76C296.384 156.549 295.595 157.168 294.571 157.616C293.568 158.064 292.384 158.288 291.019 158.288ZM308.809 149.104C308.809 147.333 309.172 145.765 309.897 144.4C310.644 143.035 311.646 141.979 312.905 141.232C314.185 140.464 315.593 140.08 317.129 140.08C318.516 140.08 319.721 140.357 320.745 140.912C321.79 141.445 322.622 142.117 323.241 142.928V140.368H326.921V158H323.241V155.376C322.622 156.208 321.78 156.901 320.713 157.456C319.646 158.011 318.43 158.288 317.065 158.288C315.55 158.288 314.164 157.904 312.905 157.136C311.646 156.347 310.644 155.259 309.897 153.872C309.172 152.464 308.809 150.875 308.809 149.104ZM323.241 149.168C323.241 147.952 322.985 146.896 322.473 146C321.982 145.104 321.332 144.421 320.521 143.952C319.71 143.483 318.836 143.248 317.897 143.248C316.958 143.248 316.084 143.483 315.273 143.952C314.462 144.4 313.801 145.072 313.289 145.968C312.798 146.843 312.553 147.888 312.553 149.104C312.553 150.32 312.798 151.387 313.289 152.304C313.801 153.221 314.462 153.925 315.273 154.416C316.105 154.885 316.98 155.12 317.897 155.12C318.836 155.12 319.71 154.885 320.521 154.416C321.332 153.947 321.982 153.264 322.473 152.368C322.985 151.451 323.241 150.384 323.241 149.168ZM340.609 140.08C341.995 140.08 343.233 140.368 344.321 140.944C345.43 141.52 346.294 142.373 346.913 143.504C347.531 144.635 347.841 146 347.841 147.6V158H344.225V148.144C344.225 146.565 343.83 145.36 343.041 144.528C342.251 143.675 341.174 143.248 339.809 143.248C338.443 143.248 337.355 143.675 336.545 144.528C335.755 145.36 335.361 146.565 335.361 148.144V158H331.713V140.368H335.361V142.384C335.958 141.659 336.715 141.093 337.633 140.688C338.571 140.283 339.563 140.08 340.609 140.08ZM351.278 149.104C351.278 147.333 351.64 145.765 352.366 144.4C353.112 143.035 354.115 141.979 355.374 141.232C356.654 140.464 358.072 140.08 359.63 140.08C360.782 140.08 361.912 140.336 363.022 140.848C364.152 141.339 365.048 142 365.71 142.832V134.32H369.39V158H365.71V155.344C365.112 156.197 364.28 156.901 363.214 157.456C362.168 158.011 360.963 158.288 359.598 158.288C358.062 158.288 356.654 157.904 355.374 157.136C354.115 156.347 353.112 155.259 352.366 153.872C351.64 152.464 351.278 150.875 351.278 149.104ZM365.71 149.168C365.71 147.952 365.454 146.896 364.942 146C364.451 145.104 363.8 144.421 362.99 143.952C362.179 143.483 361.304 143.248 360.366 143.248C359.427 143.248 358.552 143.483 357.742 143.952C356.931 144.4 356.27 145.072 355.758 145.968C355.267 146.843 355.022 147.888 355.022 149.104C355.022 150.32 355.267 151.387 355.758 152.304C356.27 153.221 356.931 153.925 357.742 154.416C358.574 154.885 359.448 155.12 360.366 155.12C361.304 155.12 362.179 154.885 362.99 154.416C363.8 153.947 364.451 153.264 364.942 152.368C365.454 151.451 365.71 150.384 365.71 149.168ZM1.184 194.104C1.184 192.333 1.54667 190.765 2.272 189.4C3.01867 188.035 4.02133 186.979 5.28 186.232C6.56 185.464 7.968 185.08 9.504 185.08C10.8907 185.08 12.096 185.357 13.12 185.912C14.1653 186.445 14.9973 187.117 15.616 187.928V185.368H19.296V203H15.616V200.376C14.9973 201.208 14.1547 201.901 13.088 202.456C12.0213 203.011 10.8053 203.288 9.44 203.288C7.92533 203.288 6.53867 202.904 5.28 202.136C4.02133 201.347 3.01867 200.259 2.272 198.872C1.54667 197.464 1.184 195.875 1.184 194.104ZM15.616 194.168C15.616 192.952 15.36 191.896 14.848 191C14.3573 190.104 13.7067 189.421 12.896 188.952C12.0853 188.483 11.2107 188.248 10.272 188.248C9.33333 188.248 8.45867 188.483 7.648 188.952C6.83733 189.4 6.176 190.072 5.664 190.968C5.17333 191.843 4.928 192.888 4.928 194.104C4.928 195.32 5.17333 196.387 5.664 197.304C6.176 198.221 6.83733 198.925 7.648 199.416C8.48 199.885 9.35467 200.12 10.272 200.12C11.2107 200.12 12.0853 199.885 12.896 199.416C13.7067 198.947 14.3573 198.264 14.848 197.368C15.36 196.451 15.616 195.384 15.616 194.168ZM40.0555 185.368V203H36.4075V200.92C35.8315 201.645 35.0742 202.221 34.1355 202.648C33.2182 203.053 32.2368 203.256 31.1915 203.256C29.8048 203.256 28.5568 202.968 27.4475 202.392C26.3595 201.816 25.4955 200.963 24.8555 199.832C24.2368 198.701 23.9275 197.336 23.9275 195.736V185.368H27.5435V195.192C27.5435 196.771 27.9382 197.987 28.7275 198.84C29.5168 199.672 30.5942 200.088 31.9595 200.088C33.3248 200.088 34.4022 199.672 35.1915 198.84C36.0022 197.987 36.4075 196.771 36.4075 195.192V185.368H40.0555ZM49.1248 188.344V198.104C49.1248 198.765 49.2741 199.245 49.5728 199.544C49.8928 199.821 50.4261 199.96 51.1728 199.96H53.4128V203H50.5328C48.8901 203 47.6314 202.616 46.7568 201.848C45.8821 201.08 45.4448 199.832 45.4448 198.104V188.344H43.3648V185.368H45.4448V180.984H49.1248V185.368H53.4128V188.344H49.1248ZM64.423 203.288C62.759 203.288 61.255 202.915 59.911 202.168C58.567 201.4 57.511 200.333 56.743 198.968C55.975 197.581 55.591 195.981 55.591 194.168C55.591 192.376 55.9857 190.787 56.775 189.4C57.5643 188.013 58.6417 186.947 60.007 186.2C61.3723 185.453 62.8977 185.08 64.583 185.08C66.2683 185.08 67.7937 185.453 69.159 186.2C70.5243 186.947 71.6017 188.013 72.391 189.4C73.1803 190.787 73.575 192.376 73.575 194.168C73.575 195.96 73.1697 197.549 72.359 198.936C71.5483 200.323 70.439 201.4 69.031 202.168C67.6443 202.915 66.1083 203.288 64.423 203.288ZM64.423 200.12C65.3617 200.12 66.2363 199.896 67.047 199.448C67.879 199 68.551 198.328 69.063 197.432C69.575 196.536 69.831 195.448 69.831 194.168C69.831 192.888 69.5857 191.811 69.095 190.936C68.6043 190.04 67.9537 189.368 67.143 188.92C66.3323 188.472 65.4577 188.248 64.519 188.248C63.5803 188.248 62.7057 188.472 61.895 188.92C61.1057 189.368 60.4763 190.04 60.007 190.936C59.5377 191.811 59.303 192.888 59.303 194.168C59.303 196.067 59.783 197.539 60.743 198.584C61.7243 199.608 62.951 200.12 64.423 200.12ZM98.5253 185.08C99.9119 185.08 101.149 185.368 102.237 185.944C103.347 186.52 104.211 187.373 104.829 188.504C105.469 189.635 105.789 191 105.789 192.6V203H102.173V193.144C102.173 191.565 101.779 190.36 100.989 189.528C100.2 188.675 99.1226 188.248 97.7573 188.248C96.3919 188.248 95.3039 188.675 94.4933 189.528C93.7039 190.36 93.3093 191.565 93.3093 193.144V203H89.6933V193.144C89.6933 191.565 89.2986 190.36 88.5093 189.528C87.7199 188.675 86.6426 188.248 85.2773 188.248C83.9119 188.248 82.8239 188.675 82.0133 189.528C81.2239 190.36 80.8293 191.565 80.8293 193.144V203H77.1813V185.368H80.8293V187.384C81.4266 186.659 82.1839 186.093 83.1013 185.688C84.0186 185.283 84.9999 185.08 86.0453 185.08C87.4533 185.08 88.7119 185.379 89.8213 185.976C90.9306 186.573 91.7839 187.437 92.3813 188.568C92.9146 187.501 93.7466 186.659 94.8773 186.04C96.0079 185.4 97.2239 185.08 98.5253 185.08ZM109.215 194.104C109.215 192.333 109.578 190.765 110.303 189.4C111.05 188.035 112.053 186.979 113.311 186.232C114.591 185.464 115.999 185.08 117.535 185.08C118.922 185.08 120.127 185.357 121.151 185.912C122.197 186.445 123.029 187.117 123.647 187.928V185.368H127.327V203H123.647V200.376C123.029 201.208 122.186 201.901 121.119 202.456C120.053 203.011 118.837 203.288 117.471 203.288C115.957 203.288 114.57 202.904 113.311 202.136C112.053 201.347 111.05 200.259 110.303 198.872C109.578 197.464 109.215 195.875 109.215 194.104ZM123.647 194.168C123.647 192.952 123.391 191.896 122.879 191C122.389 190.104 121.738 189.421 120.927 188.952C120.117 188.483 119.242 188.248 118.303 188.248C117.365 188.248 116.49 188.483 115.679 188.952C114.869 189.4 114.207 190.072 113.695 190.968C113.205 191.843 112.959 192.888 112.959 194.104C112.959 195.32 113.205 196.387 113.695 197.304C114.207 198.221 114.869 198.925 115.679 199.416C116.511 199.885 117.386 200.12 118.303 200.12C119.242 200.12 120.117 199.885 120.927 199.416C121.738 198.947 122.389 198.264 122.879 197.368C123.391 196.451 123.647 195.384 123.647 194.168ZM136.375 188.344V198.104C136.375 198.765 136.524 199.245 136.823 199.544C137.143 199.821 137.676 199.96 138.423 199.96H140.663V203H137.783C136.14 203 134.881 202.616 134.007 201.848C133.132 201.08 132.695 199.832 132.695 198.104V188.344H130.615V185.368H132.695V180.984H136.375V185.368H140.663V188.344H136.375ZM145.881 183.032C145.22 183.032 144.665 182.808 144.217 182.36C143.769 181.912 143.545 181.357 143.545 180.696C143.545 180.035 143.769 179.48 144.217 179.032C144.665 178.584 145.22 178.36 145.881 178.36C146.521 178.36 147.065 178.584 147.513 179.032C147.961 179.48 148.185 180.035 148.185 180.696C148.185 181.357 147.961 181.912 147.513 182.36C147.065 182.808 146.521 183.032 145.881 183.032ZM147.673 185.368V203H144.025V185.368H147.673ZM160.111 203.288C158.447 203.288 156.943 202.915 155.599 202.168C154.255 201.4 153.199 200.333 152.431 198.968C151.663 197.581 151.279 195.981 151.279 194.168C151.279 192.376 151.673 190.787 152.463 189.4C153.252 188.013 154.329 186.947 155.695 186.2C157.06 185.453 158.585 185.08 160.271 185.08C161.956 185.08 163.481 185.453 164.847 186.2C166.212 186.947 167.289 188.013 168.079 189.4C168.868 190.787 169.263 192.376 169.263 194.168C169.263 195.96 168.857 197.549 168.047 198.936C167.236 200.323 166.127 201.4 164.719 202.168C163.332 202.915 161.796 203.288 160.111 203.288ZM160.111 200.12C161.049 200.12 161.924 199.896 162.735 199.448C163.567 199 164.239 198.328 164.751 197.432C165.263 196.536 165.519 195.448 165.519 194.168C165.519 192.888 165.273 191.811 164.783 190.936C164.292 190.04 163.641 189.368 162.831 188.92C162.02 188.472 161.145 188.248 160.207 188.248C159.268 188.248 158.393 188.472 157.583 188.92C156.793 189.368 156.164 190.04 155.695 190.936C155.225 191.811 154.991 192.888 154.991 194.168C154.991 196.067 155.471 197.539 156.431 198.584C157.412 199.608 158.639 200.12 160.111 200.12ZM181.765 185.08C183.151 185.08 184.389 185.368 185.477 185.944C186.586 186.52 187.45 187.373 188.069 188.504C188.687 189.635 188.997 191 188.997 192.6V203H185.381V193.144C185.381 191.565 184.986 190.36 184.197 189.528C183.407 188.675 182.33 188.248 180.965 188.248C179.599 188.248 178.511 188.675 177.701 189.528C176.911 190.36 176.517 191.565 176.517 193.144V203H172.869V185.368H176.517V187.384C177.114 186.659 177.871 186.093 178.789 185.688C179.727 185.283 180.719 185.08 181.765 185.08ZM200.05 203.288C198.663 203.288 197.415 203.043 196.306 202.552C195.218 202.04 194.354 201.357 193.714 200.504C193.074 199.629 192.733 198.659 192.69 197.592H196.466C196.53 198.339 196.882 198.968 197.522 199.48C198.183 199.971 199.005 200.216 199.986 200.216C201.01 200.216 201.799 200.024 202.354 199.64C202.93 199.235 203.218 198.723 203.218 198.104C203.218 197.443 202.898 196.952 202.258 196.632C201.639 196.312 200.647 195.96 199.282 195.576C197.959 195.213 196.882 194.861 196.05 194.52C195.218 194.179 194.493 193.656 193.874 192.952C193.277 192.248 192.978 191.32 192.978 190.168C192.978 189.229 193.255 188.376 193.81 187.608C194.365 186.819 195.154 186.2 196.178 185.752C197.223 185.304 198.418 185.08 199.762 185.08C201.767 185.08 203.378 185.592 204.594 186.616C205.831 187.619 206.493 188.995 206.578 190.744H202.93C202.866 189.955 202.546 189.325 201.97 188.856C201.394 188.387 200.615 188.152 199.634 188.152C198.674 188.152 197.938 188.333 197.426 188.696C196.914 189.059 196.658 189.539 196.658 190.136C196.658 190.605 196.829 191 197.17 191.32C197.511 191.64 197.927 191.896 198.418 192.088C198.909 192.259 199.634 192.483 200.594 192.76C201.874 193.101 202.919 193.453 203.73 193.816C204.562 194.157 205.277 194.669 205.874 195.352C206.471 196.035 206.781 196.941 206.802 198.072C206.802 199.075 206.525 199.971 205.97 200.76C205.415 201.549 204.626 202.168 203.602 202.616C202.599 203.064 201.415 203.288 200.05 203.288ZM212.216 203.224C211.554 203.224 211 203 210.552 202.552C210.104 202.104 209.88 201.549 209.88 200.888C209.88 200.227 210.104 199.672 210.552 199.224C211 198.776 211.554 198.552 212.216 198.552C212.856 198.552 213.4 198.776 213.848 199.224C214.296 199.672 214.52 200.227 214.52 200.888C214.52 201.549 214.296 202.104 213.848 202.552C213.4 203 212.856 203.224 212.216 203.224Z" fill="#282828"/>
                    <g filter="url(#filter1_d_0_891)">
                    <rect x="431" y="34" width="406" height="316" rx="30" fill="white" fill-opacity="0.62" shape-rendering="crispEdges"/>
                    </g>
                    <rect x="469" y="220" width="29" height="56" rx="10" fill="#2A0896"/>
                    <rect x="518" y="193" width="29" height="83" rx="10" fill="#2A0896"/>
                    <rect x="567" y="193" width="29" height="83" rx="10" fill="#2A0896"/>
                    <rect x="616" y="162" width="29" height="114" rx="10" fill="#2A0896"/>
                    <rect x="665" y="193" width="29" height="83" rx="10" fill="#2A0896"/>
                    <g filter="url(#filter2_d_0_891)">
                    <path d="M469 191C478.811 179.562 507.043 158.078 541.49 163.648C584.547 170.61 599.808 138.782 632.51 144.75C665.212 150.718 658.127 167.129 705 181.054" stroke="#3A0CA3" stroke-width="3" stroke-linecap="round"/>
                    </g>
                    <g filter="url(#filter3_d_0_891)">
                    <rect x="465" y="61" width="291" height="65" rx="10" fill="#EFEFEF"/>
                    </g>
                    <circle cx="500.5" cy="94.5" r="24.5" fill="#2A0896"/>
                    <line x1="534.5" y1="84.5" x2="706.5" y2="84.5" stroke="#3A0CA3" stroke-opacity="0.3" stroke-width="3" stroke-linecap="round"/>
                    <line x1="534.5" y1="84.5" x2="594.5" y2="84.5" stroke="#3A0CA3" stroke-width="3" stroke-linecap="round"/>
                    <rect x="533" y="96" width="164" height="11" rx="5.5" fill="#D9D9D9"/>
                    <rect x="468" y="306" width="336" height="11" rx="5.5" fill="#D9D9D9"/>
                    <path d="M781.75 196.366C779.868 196.915 778.052 197.67 776.335 198.618L776.958 209.471L766.033 208.896C765.086 210.612 764.33 212.428 763.781 214.31L771.855 221.618L763.781 228.805C764.322 230.69 765.077 232.507 766.033 234.22L776.958 233.788L776.407 244.666C778.124 245.605 779.94 246.353 781.822 246.894L789.129 238.82L796.317 246.894C798.201 246.361 800.018 245.614 801.731 244.666L801.18 233.788L812.057 234.339C813.005 232.626 813.753 230.809 814.285 228.925L806.211 221.737L814.285 214.43C813.76 212.509 813.021 210.652 812.081 208.896L801.204 209.447L801.755 198.594C800.042 197.638 798.226 196.882 796.341 196.342L789.153 204.416L781.75 196.366Z" stroke="#3A0CA3" stroke-width="2.27083" stroke-linecap="round" stroke-linejoin="round"/>
                    <path d="M789.057 231.129C794.297 231.129 798.545 226.882 798.545 221.642C798.545 216.402 794.297 212.154 789.057 212.154C783.817 212.154 779.57 216.402 779.57 221.642C779.57 226.882 783.817 231.129 789.057 231.129Z" stroke="#3A0CA3" stroke-width="2.27083" stroke-linecap="round" stroke-linejoin="round"/>
                    <path d="M824.659 166.106C822.769 166.644 820.945 167.391 819.221 168.334L819.796 179.212L808.919 178.66C807.971 180.374 807.223 182.191 806.691 184.075L814.741 191.263L806.691 198.57C807.223 200.492 807.971 202.349 808.919 204.104L819.796 203.553L819.221 214.406C820.944 215.358 822.768 216.113 824.659 216.658L831.847 208.584L839.034 216.658C840.917 216.109 842.732 215.354 844.449 214.406L844.042 203.529L854.895 204.08C855.842 202.364 856.598 200.548 857.147 198.666L849.073 191.358L857.147 184.171C856.606 182.286 855.851 180.469 854.895 178.756L844.042 179.212L844.593 168.334C842.899 167.398 841.107 166.651 839.25 166.106L832.063 174.18L824.659 166.106Z" stroke="#3A0CA3" stroke-width="2.27083" stroke-linecap="round" stroke-linejoin="round"/>
                    <path d="M831.943 200.846C837.182 200.846 841.43 196.598 841.43 191.358C841.43 186.118 837.182 181.871 831.943 181.871C826.703 181.871 822.455 186.118 822.455 191.358C822.455 196.598 826.703 200.846 831.943 200.846Z" stroke="#3A0CA3" stroke-width="2.27083" stroke-linecap="round" stroke-linejoin="round"/>
                    <defs>
                    <filter id="filter0_d_0_891" x="413" y="0" width="466" height="348" filterUnits="userSpaceOnUse" color-interpolation-filters="sRGB">
                    <feFlood flood-opacity="0" result="BackgroundImageFix"/>
                    <feColorMatrix in="SourceAlpha" type="matrix" values="0 0 0 0 0 0 0 0 0 0 0 0 0 0 0 0 0 0 127 0" result="hardAlpha"/>
                    <feOffset dx="-30" dy="30"/>
                    <feGaussianBlur stdDeviation="15"/>
                    <feComposite in2="hardAlpha" operator="out"/>
                    <feColorMatrix type="matrix" values="0 0 0 0 0.156863 0 0 0 0 0.156863 0 0 0 0 0.156863 0 0 0 0.05 0"/>
                    <feBlend mode="normal" in2="BackgroundImageFix" result="effect1_dropShadow_0_891"/>
                    <feBlend mode="normal" in="SourceGraphic" in2="effect1_dropShadow_0_891" result="shape"/>
                    </filter>
                    <filter id="filter1_d_0_891" x="371" y="34" width="466" height="376" filterUnits="userSpaceOnUse" color-interpolation-filters="sRGB">
                    <feFlood flood-opacity="0" result="BackgroundImageFix"/>
                    <feColorMatrix in="SourceAlpha" type="matrix" values="0 0 0 0 0 0 0 0 0 0 0 0 0 0 0 0 0 0 127 0" result="hardAlpha"/>
                    <feOffset dx="-30" dy="30"/>
                    <feGaussianBlur stdDeviation="15"/>
                    <feComposite in2="hardAlpha" operator="out"/>
                    <feColorMatrix type="matrix" values="0 0 0 0 0.156863 0 0 0 0 0.156863 0 0 0 0 0.156863 0 0 0 0.05 0"/>
                    <feBlend mode="normal" in2="BackgroundImageFix" result="effect1_dropShadow_0_891"/>
                    <feBlend mode="normal" in="SourceGraphic" in2="effect1_dropShadow_0_891" result="shape"/>
                    </filter>
                    <filter id="filter2_d_0_891" x="441.5" y="116.501" width="299" height="109.999" filterUnits="userSpaceOnUse" color-interpolation-filters="sRGB">
                    <feFlood flood-opacity="0" result="BackgroundImageFix"/>
                    <feColorMatrix in="SourceAlpha" type="matrix" values="0 0 0 0 0 0 0 0 0 0 0 0 0 0 0 0 0 0 127 0" result="hardAlpha"/>
                    <feOffset dx="4" dy="4"/>
                    <feGaussianBlur stdDeviation="15"/>
                    <feComposite in2="hardAlpha" operator="out"/>
                    <feColorMatrix type="matrix" values="0 0 0 0 0.227451 0 0 0 0 0.0470588 0 0 0 0 0.639216 0 0 0 1 0"/>
                    <feBlend mode="normal" in2="BackgroundImageFix" result="effect1_dropShadow_0_891"/>
                    <feBlend mode="normal" in="SourceGraphic" in2="effect1_dropShadow_0_891" result="shape"/>
                    </filter>
                    <filter id="filter3_d_0_891" x="425" y="41" width="351" height="125" filterUnits="userSpaceOnUse" color-interpolation-filters="sRGB">
                    <feFlood flood-opacity="0" result="BackgroundImageFix"/>
                    <feColorMatrix in="SourceAlpha" type="matrix" values="0 0 0 0 0 0 0 0 0 0 0 0 0 0 0 0 0 0 127 0" result="hardAlpha"/>
                    <feOffset dx="-10" dy="10"/>
                    <feGaussianBlur stdDeviation="15"/>
                    <feComposite in2="hardAlpha" operator="out"/>
                    <feColorMatrix type="matrix" values="0 0 0 0 0 0 0 0 0 0 0 0 0 0 0 0 0 0 0.15 0"/>
                    <feBlend mode="normal" in2="BackgroundImageFix" result="effect1_dropShadow_0_891"/>
                    <feBlend mode="normal" in="SourceGraphic" in2="effect1_dropShadow_0_891" result="shape"/>
                    </filter>
                    </defs>
                    </svg>